<svg width="36" height="35" viewBox="0 0 36 35" fill="none" xmlns="http://www.w3.org/2000/svg">
<path d="M6.23629 0C4.68919 0 3.20546 0.737498 2.1115 2.05025C1.01754 3.36301 0.402954 5.14348 0.402954 7V7.7035L17.903 19.012L35.403 7.707V7C35.403 5.14348 34.7884 3.36301 33.6944 2.05025C32.6004 0.737498 31.1167 0 29.5696 0H6.23629Z" fill="black"/>
<path d="M35.403 11.6795L18.5942 22.54C18.3818 22.6773 18.1442 22.7491 17.903 22.7491C17.6617 22.7491 17.4242 22.6773 17.2117 22.54L0.402954 11.6795V28C0.402954 29.8566 1.01754 31.637 2.1115 32.9498C3.20546 34.2625 4.68919 35 6.23629 35H29.5696C31.1167 35 32.6004 34.2625 33.6944 32.9498C34.7884 31.637 35.403 29.8566 35.403 28V11.6795Z" fill="black"/>
</svg>
