<svg width="36" height="35" viewBox="0 0 36 35" fill="none" xmlns="http://www.w3.org/2000/svg">
<path fill-rule="evenodd" clip-rule="evenodd" d="M11.121 0.105C12.9872 0.0190909 13.5822 0 18.3358 0C23.0895 0 23.6845 0.0206818 25.549 0.105C27.4135 0.189318 28.6863 0.486818 29.7999 0.917955C30.966 1.35864 32.024 2.0475 32.899 2.93841C33.7899 3.81182 34.4772 4.86818 34.9163 6.03591C35.349 7.14955 35.6449 8.42227 35.7308 10.2836C35.8167 12.153 35.8358 12.748 35.8358 17.5C35.8358 22.2536 35.8151 22.8486 35.7308 24.7148C35.6465 26.5761 35.349 27.8489 34.9163 28.9625C34.4772 30.1304 33.7888 31.1885 32.899 32.0632C32.024 32.9541 30.966 33.6414 29.7999 34.0805C28.6863 34.5132 27.4135 34.8091 25.5522 34.895C23.6845 34.9809 23.0895 35 18.3358 35C13.5822 35 12.9872 34.9793 11.121 34.895C9.25968 34.8107 7.98695 34.5132 6.87332 34.0805C5.70546 33.6413 4.64735 32.9529 3.77263 32.0632C2.88233 31.1892 2.19336 30.1316 1.75377 28.9641C1.32263 27.8505 1.02672 26.5777 0.940815 24.7164C0.854906 22.847 0.835815 22.252 0.835815 17.5C0.835815 12.7464 0.856497 12.1514 0.940815 10.2868C1.02513 8.42227 1.32263 7.14955 1.75377 6.03591C2.19401 4.86831 2.8835 3.81073 3.77422 2.93682C4.6477 2.04671 5.70475 1.35775 6.87172 0.917955C7.98536 0.486818 9.25809 0.190909 11.1195 0.105H11.121ZM25.4074 3.255C23.562 3.17068 23.0083 3.15318 18.3358 3.15318C13.6633 3.15318 13.1097 3.17068 11.2642 3.255C9.55718 3.33295 8.63127 3.61773 8.014 3.85795C7.19786 4.17614 6.614 4.55318 6.0015 5.16568C5.42089 5.73054 4.97406 6.41818 4.69377 7.17818C4.45354 7.79545 4.16877 8.72136 4.09082 10.4284C4.0065 12.2739 3.989 12.8275 3.989 17.5C3.989 22.1725 4.0065 22.7261 4.09082 24.5716C4.16877 26.2786 4.45354 27.2045 4.69377 27.8218C4.97377 28.5807 5.42082 29.2695 6.0015 29.8343C6.56627 30.415 7.25513 30.862 8.014 31.142C8.63127 31.3823 9.55718 31.667 11.2642 31.745C13.1097 31.8293 13.6617 31.8468 18.3358 31.8468C23.0099 31.8468 23.562 31.8293 25.4074 31.745C27.1145 31.667 28.0404 31.3823 28.6576 31.142C29.4738 30.8239 30.0576 30.4468 30.6701 29.8343C31.2508 29.2695 31.6979 28.5807 31.9779 27.8218C32.2181 27.2045 32.5029 26.2786 32.5808 24.5716C32.6651 22.7261 32.6826 22.1725 32.6826 17.5C32.6826 12.8275 32.6651 12.2739 32.5808 10.4284C32.5029 8.72136 32.2181 7.79545 31.9779 7.17818C31.6597 6.36205 31.2826 5.77818 30.6701 5.16568C30.1052 4.58511 29.4176 4.13829 28.6576 3.85795C28.0404 3.61773 27.1145 3.33295 25.4074 3.255V3.255ZM16.1006 22.8948C17.3489 23.4144 18.7389 23.4845 20.0332 23.0932C21.3275 22.7018 22.4458 21.8733 23.197 20.749C23.9483 19.6248 24.2859 18.2746 24.1523 16.929C24.0186 15.5835 23.422 14.3261 22.4642 13.3716C21.8537 12.7614 21.1155 12.2942 20.3027 12.0036C19.4899 11.713 18.6229 11.6063 17.7639 11.691C16.9049 11.7757 16.0754 12.0498 15.335 12.4936C14.5947 12.9374 13.962 13.5398 13.4824 14.2575C13.0029 14.9752 12.6884 15.7902 12.5616 16.644C12.4349 17.4978 12.499 18.3691 12.7494 19.1951C12.9998 20.0212 13.4302 20.7814 14.0097 21.4211C14.5892 22.0609 15.3033 22.5642 16.1006 22.8948ZM11.9754 11.1395C12.8106 10.3043 13.8022 9.64171 14.8936 9.18967C15.9849 8.73762 17.1546 8.50496 18.3358 8.50496C19.5171 8.50496 20.6867 8.73762 21.7781 9.18967C22.8694 9.64171 23.861 10.3043 24.6963 11.1395C25.5315 11.9748 26.1941 12.9664 26.6461 14.0577C27.0982 15.1491 27.3309 16.3188 27.3309 17.5C27.3309 18.6812 27.0982 19.8509 26.6461 20.9423C26.1941 22.0336 25.5315 23.0252 24.6963 23.8605C23.0094 25.5474 20.7214 26.495 18.3358 26.495C15.9502 26.495 13.6623 25.5474 11.9754 23.8605C10.2885 22.1736 9.34077 19.8856 9.34077 17.5C9.34077 15.1144 10.2885 12.8264 11.9754 11.1395V11.1395ZM29.3258 9.84455C29.5328 9.64929 29.6985 9.41449 29.8131 9.15405C29.9277 8.89361 29.9889 8.61281 29.9931 8.3283C29.9972 8.04378 29.9442 7.76133 29.8373 7.49765C29.7303 7.23398 29.5715 6.99445 29.3703 6.79324C29.1691 6.59204 28.9296 6.43325 28.6659 6.32628C28.4022 6.21931 28.1198 6.16633 27.8352 6.17047C27.5507 6.17462 27.2699 6.23581 27.0095 6.35043C26.7491 6.46504 26.5143 6.63074 26.319 6.83773C25.9393 7.24027 25.7314 7.77497 25.7394 8.3283C25.7475 8.88163 25.9709 9.41003 26.3622 9.80134C26.7535 10.1926 27.2819 10.416 27.8352 10.4241C28.3886 10.4322 28.9233 10.2243 29.3258 9.84455V9.84455Z" fill="black"/>
</svg>
