<svg width="36" height="35" viewBox="0 0 36 35" fill="none" xmlns="http://www.w3.org/2000/svg">
<path d="M17.6194 0C7.95151 0 0.119415 7.83323 0.119415 17.5C0.119415 27.1668 7.95264 35 17.6194 35C27.2873 35 35.1194 27.1668 35.1194 17.5C35.1194 7.83323 27.2862 0 17.6194 0ZM26.2147 11.9892L23.3425 25.524C23.1302 26.4837 22.5589 26.7163 21.7618 26.2647L17.3868 23.0402L15.2767 25.0724C15.0441 25.305 14.8465 25.5026 14.3949 25.5026L14.7054 21.0497L22.813 13.7245C23.1664 13.414 22.7351 13.2379 22.2688 13.5484L12.2486 19.8563L7.93006 18.5082C6.99183 18.2124 6.97038 17.57 8.12764 17.1184L24.9999 10.6118C25.7834 10.3295 26.4676 10.8026 26.2136 11.9881L26.2147 11.9892Z" fill="black"/>
</svg>
