<svg width="35" height="35" viewBox="0 0 35 35" fill="none" xmlns="http://www.w3.org/2000/svg">
<path d="M35 4.15164C33.7129 4.85321 32.3302 5.32725 30.8766 5.54151C32.3765 4.43756 33.4985 2.70008 34.0335 0.653256C32.6244 1.68284 31.0822 2.40756 29.4739 2.7959C28.3924 1.37543 26.9599 0.433922 25.3989 0.117546C23.8378 -0.198829 22.2355 0.127629 20.8407 1.04624C19.4459 1.96484 18.3367 3.42421 17.6852 5.19775C17.0338 6.97129 16.8765 8.95978 17.238 10.8545C14.3827 10.6782 11.5895 9.76526 9.03967 8.17507C6.48981 6.58488 4.24026 4.35294 2.43702 1.62408C1.82044 2.93242 1.46591 4.44933 1.46591 6.06485C1.46522 7.51918 1.75637 8.95124 2.31352 10.234C2.87067 11.5167 3.67659 12.6104 4.65978 13.4181C3.51954 13.3735 2.40446 12.9945 1.40734 12.3126V12.4264C1.40722 14.4662 1.9808 16.4432 3.03076 18.0219C4.08071 19.6007 5.54237 20.684 7.16771 21.088C6.10995 21.4401 5.00096 21.492 3.92451 21.2397C4.38309 22.9948 5.27635 24.5295 6.47925 25.6291C7.68215 26.7287 9.13446 27.338 10.6329 27.3718C8.08924 29.8281 4.94786 31.1605 1.71408 31.1546C1.14126 31.1548 0.56891 31.1136 0 31.0314C3.28247 33.6275 7.10349 35.0053 11.0059 35C24.2161 35 31.4377 21.5412 31.4377 9.86851C31.4377 9.48928 31.43 9.10626 31.4161 8.72703C32.8209 7.47742 34.0334 5.93002 34.9969 4.15733L35 4.15164V4.15164Z" fill="black"/>
</svg>
